Coordinates
version=1
nRows=16
nColumns=33
inDegrees=yes

Units are S.I. units (second, meters, Newtons, ...)
Angles are in degrees.

endheader
time	ground_thorax_rot_x	ground_thorax_rot_y	ground_thorax_rot_z	ground_thorax_tx	ground_thorax_ty	ground_thorax_tz	clav_prot_r	clav_elev_r	scapula_abduction_r	scapula_elevation_r	scapula_upward_rot_r	scapula_winging_r	shoulder_elv_r	plane_of_elev_r	axial_rot_r	elbow_flexion_r	pro_sup_r	wrist_flex_r	wrist_dev_r	clav_prot_l	clav_elev_l	scapula_abduction_l	scapula_elevation_l	scapula_upward_rot_l	scapula_winging_l	shoulder_elv_l	plane_of_elev_l	axial_rot_l	elbow_flexion_l	pro_sup_l	wrist_flex_l	wrist_dev_l
      9.08000000	    -33.05851979	    -20.41122533	     35.62981284	   -173.98450585	    807.76653868	      6.31174548	      6.79405805	    -45.00000000	     39.17807025	    -45.00000000	    -34.12783849	  -2261.20183182	  -1729.83131747	     32.59005330	     64.52104052	   1812.68150472	     21.02102115	     19.17353759	      8.64716273	     14.67144471	     37.81296892	    -36.52630166	    -45.00000000	    -45.00000000	   1884.03255533	  -3335.42889088	    135.91464542	    168.27344301	    369.63008149	     -5.72737300	     10.22309827	    -18.41838178
      9.09000000	    -33.25355436	    -20.10711555	     35.13674391	   -176.19267851	    808.67252908	      6.34165789	      6.77120809	    -45.00000000	     39.18419210	    -45.00000000	    -34.03050617	  -2261.26378780	  -1729.73159933	     32.68541207	     64.42812633	   1812.64513270	     20.02525630	     19.13552888	      8.67170745	     14.66180566	     37.77632340	    -36.59041384	    -45.00000000	    -45.00000000	   1884.12733940	  -3335.32104559	    135.85642049	    168.35555800	    369.63185755	     -6.28385333	     10.23180095	    -18.39952888
      9.10000000	    -33.41002339	    -19.83079741	     34.72676686	   -178.37345651	    809.56949061	      6.36445107	      6.74418442	    -45.00000000	     39.23136832	    -45.00000000	    -33.87825925	  -2261.33531162	  -1729.59893953	     32.67852948	     64.35894648	   1812.60321901	     19.05123953	     19.10348310	      8.71472128	     14.64075549	     37.79290246	    -36.65924565	    -45.00000000	    -45.00000000	   1884.21436611	  -3335.27051695	    135.87516764	    168.21463451	    369.70615629	     -6.79458397	     10.21448424	    -18.40067763
      9.11000000	    -33.56716891	    -19.57410561	     34.34969352	   -180.52525673	    810.45655863	      6.38133266	      6.72451771	    -45.00000000	     39.22805567	    -45.00000000	    -33.76451762	  -2261.42042716	  -1729.47775662	     32.69234394	     64.30051578	   1812.57004477	     18.09487656	     19.07232767	      8.72812992	     14.62180167	     37.79641349	    -36.71895197	    -45.00000000	    -45.00000000	   1884.31000546	  -3335.20951370	    135.89707367	    168.09161371	    369.76658960	     -7.29035252	     10.19435723	    -18.40317124
      9.12000000	    -33.72375071	    -19.33770142	     33.96640303	   -182.64615859	    811.33393775	      6.39480338	      6.71067441	    -45.00000000	     39.21701646	    -45.00000000	    -33.66737810	  -2261.50336967	  -1729.37064042	     32.71374780	     64.25500701	   1812.56673473	     17.14858803	     19.05063946	      8.74326892	     14.60822395	     37.78876958	    -36.75069910	    -45.00000000	    -45.00000000	   1884.41516726	  -3335.15188742	    135.91556248	    167.96012934	    369.82779187	     -7.76604596	     10.16045668	    -18.41128491
      9.13000000	    -33.86802179	    -19.10522750	     33.59314841	   -184.73547886	    812.20357071	      6.40670793	      6.69956279	    -45.00000000	     39.23262304	    -45.00000000	    -33.62391660	  -2261.56694629	  -1729.25876842	     32.73919918	     64.25803017	   1812.52037286	     16.21403785	     19.02033371	      8.76488881	     14.60978150	     37.75172501	    -36.78201344	    -45.00000000	    -45.00000000	   1884.50748197	  -3335.10072498	    135.91995840	    167.86775902	    369.84115655	     -8.22404776	     10.11343927	    -18.41251765
      9.14000000	    -34.01763193	    -18.88277113	     33.22184376	   -186.79094219	    813.06730186	      6.41891868	      6.68982201	    -45.00000000	     39.22471754	    -45.00000000	    -33.54781500	  -2261.64217477	  -1729.16085082	     32.75944391	     64.27235587	   1812.51097159	     15.28074092	     18.99792069	      8.77191475	     14.59511937	     37.74008173	    -36.80377989	    -45.00000000	    -45.00000000	   1884.61444706	  -3335.05295599	    135.94726924	    167.68646184	    369.89664971	     -8.63668580	     10.05435826	    -18.42963826
      9.15000000	    -34.16097295	    -18.66636135	     32.85871192	   -188.81287020	    813.92830260	      6.43139969	      6.68305571	    -45.00000000	     39.21608191	    -45.00000000	    -33.50904043	  -2261.71068454	  -1729.06636898	     32.79101991	     64.31854238	   1812.48164281	     14.36405570	     18.97059625	      8.77299524	     14.59484612	     37.70265908	    -36.81379855	    -45.00000000	    -45.00000000	   1884.70508135	  -3335.00332718	    135.96307328	    167.57019169	    369.91838133	     -9.01466695	      9.98429371	    -18.44095072
      9.16000000	    -34.30920977	    -18.42775344	     32.49970673	   -190.80145261	    814.78872715	      6.44437907	      6.66799644	    -45.00000000	     39.21211804	    -45.00000000	    -33.43895895	  -2261.78544759	  -1728.96817418	     32.79989060	     64.36394480	   1812.45742838	     13.47815992	     18.94616105	      8.76132918	     14.57191135	     37.70132718	    -36.85371698	    -45.00000000	    -45.00000000	   1884.79215077	  -3334.94408584	    135.99692057	    167.39009443	    369.97410271	     -9.32252686	      9.90523176	    -18.46520885
      9.17000000	    -34.44637897	    -18.22092033	     32.16260660	   -192.75736516	    815.64974943	      6.45698670	      6.66536313	    -45.00000000	     39.20130104	    -45.00000000	    -33.40724056	  -2261.86221597	  -1728.87459842	     32.82781849	     64.44561180	   1812.44970777	     12.62277593	     18.92643694	      8.75490057	     14.57316159	     37.66593426	    -36.86539633	    -45.00000000	    -45.00000000	   1884.90296846	  -3334.89580549	    136.00665729	    167.22625831	    370.00375883	     -9.57441796	      9.78346591	    -18.49207646
      9.18000000	    -34.57228948	    -18.08539424	     31.86781256	   -194.68358911	    816.51046262	      6.46991506	      6.70645162	    -45.00000000	     39.16767856	    -45.00000000	    -33.47754476	  -2261.92036211	  -1728.83346352	     32.90500224	     64.59867556	   1812.37315268	     11.77294961	     18.88666426	      8.76535612	     14.62438984	     37.53466025	    -36.81011230	    -45.00000000	    -45.00000000	   1885.00270138	  -3334.84312830	    135.99297263	    167.18463448	    369.91561769	     -9.79947750	      9.62175845	    -18.49644762
      9.19000000	    -34.70879420	    -17.91592123	     31.62046616	   -196.58257168	    817.36802980	      6.48336229	      6.77999663	    -45.00000000	     39.10351622	    -45.00000000	    -33.55415120	  -2262.01773431	  -1728.80416248	     32.95297091	     64.74559255	   1812.28764432	     10.88898941	     18.84310211	      8.73342339	     14.64154162	     37.43359435	    -36.77836878	    -45.00000000	    -45.00000000	   1885.01749590	  -3334.73749034	    136.07269172	    167.13458565	    369.92542262	     -9.98204416	      9.52042872	    -18.50571830
      9.20000000	    -34.88901899	    -17.58796161	     31.20833577	   -198.45603701	    818.21785962	      6.49913163	      6.59287572	    -45.00000000	     39.18701736	    -45.00000000	    -33.15984439	  -2262.05471516	  -1728.60100958	     32.71131084	     64.64803900	   1812.40016684	     10.23457873	     18.88029012	      8.72188861	     14.48874927	     37.75024766	    -36.96654862	    -45.00000000	    -45.00000000	   1885.13235095	  -3334.83444454	    136.22125425	    166.51002583	    370.12856045	     -9.99159247	      9.45731080	    -18.58208248
      9.21000000	    -35.02578377	    -17.37327861	     30.87681100	   -200.30942995	    819.05916493	      6.51671020	      6.63478954	    -45.00000000	     39.11291805	    -45.00000000	    -33.32602364	  -2262.14091292	  -1728.53969379	     32.88847330	     64.82756562	   1812.38066116	      9.70638500	     18.87026173	      8.59620453	     14.53747969	     37.59999729	    -36.92960688	    -45.00000000	    -45.00000000	   1885.21528887	  -3334.70521551	    136.14370369	    166.67234655	    370.09073093	    -10.14000662	      9.35770184	    -18.58196903
      9.22000000	    -35.14913874	    -17.21887819	     30.62171873	   -202.13930954	    819.88932517	      6.53528486	      6.67063913	    -45.00000000	     39.10681768	    -45.00000000	    -33.36906574	  -2262.21722198	  -1728.48939573	     32.91235456	     65.00309289	   1812.37383689	      9.24241083	     18.86550115	      8.58487793	     14.57464292	     37.50567847	    -36.90084223	    -45.00000000	    -45.00000000	   1885.34687417	  -3334.67690371	    136.12264633	    166.53448599	    370.07242592	    -10.26295287	      9.18540789	    -18.60935509
      9.23000000	    -35.29342861	    -17.07327421	     30.36142354	   -203.94614633	    820.71023370	      6.55143387	      6.73341477	    -45.00000000	     39.04581676	    -45.00000000	    -33.47806708	  -2262.28794975	  -1728.46894864	     32.98073148	     65.15297907	   1812.31820878	      8.83378423	     18.84916199	      8.48758847	     14.58711403	     37.41696422	    -36.86723792	    -45.00000000	    -45.00000000	   1885.36196240	  -3334.58615826	    136.19580749	    166.51599112	    370.04133010	    -10.41572242	      9.11068802	    -18.60471376
